<?xml version="1.0" standalone="no"?>
<!DOCTYPE svg PUBLIC "-//W3C//DTD SVG 20010904//EN"
 "http://www.w3.org/TR/2001/REC-SVG-20010904/DTD/svg10.dtd">
<svg version="1.0" xmlns="http://www.w3.org/2000/svg"
 width="175.000000pt" height="145.000000pt" viewBox="0 0 175.000000 145.000000"
 preserveAspectRatio="xMidYMid meet">

<g transform="translate(0.000000,145.000000) scale(0.100000,-0.100000)"
fill="#000000" stroke="none">
<path d="M455 1417 c-60 -29 -116 -88 -139 -148 -15 -39 -17 -86 -14 -404 l3
-360 28 -47 c15 -26 43 -59 62 -74 68 -52 82 -53 480 -53 367 -1 370 -1 420
23 28 12 65 40 84 61 67 76 66 72 66 470 0 322 -2 364 -17 397 -25 53 -74 106
-122 131 -40 21 -52 22 -421 25 l-380 2 -50 -23z m205 -146 c0 -23 -19 -31
-74 -31 -67 0 -94 -33 -98 -118 -3 -59 -5 -67 -23 -67 -18 0 -20 8 -23 62 -6
118 44 173 156 173 54 0 62 -2 62 -19z m570 2 c45 -26 70 -81 70 -152 0 -47
-4 -63 -16 -68 -23 -9 -34 15 -34 78 0 47 -4 60 -26 83 -21 21 -36 26 -74 26
-48 0 -78 18 -65 40 10 16 114 12 145 -7z m-293 -73 c18 -10 40 -32 50 -47 23
-37 32 -43 66 -43 69 0 117 -54 117 -131 0 -42 -7 -51 -89 -121 -15 -13 -21
-30 -21 -56 0 -54 -23 -62 -175 -62 -153 0 -175 7 -175 55 0 25 -7 42 -22 55
-96 83 -98 85 -98 139 0 65 36 110 95 120 31 5 45 14 65 45 15 21 38 45 51 52
35 19 99 17 136 -6z m-447 -542 c7 -101 29 -128 106 -128 30 0 56 -5 63 -13
18 -22 -8 -37 -66 -37 -99 0 -142 42 -151 146 -6 78 3 116 26 112 14 -3 18
-18 22 -80z m806 56 c9 -35 -1 -133 -17 -167 -21 -46 -69 -69 -136 -65 -50 3
-58 6 -58 23 0 17 8 20 57 23 45 2 61 8 82 29 23 23 26 34 26 98 0 39 3 75 7
78 14 15 33 6 39 -19z m-238 -48 c2 -21 -1 -42 -6 -45 -6 -3 -85 -5 -176 -3
l-166 3 0 38 c0 21 3 41 7 45 4 3 81 5 172 4 l166 -3 3 -39z"/>
<path d="M438 239 c-29 -11 -43 -38 -33 -68 3 -10 28 -28 56 -40 51 -21 58
-35 26 -55 -12 -8 -26 -7 -49 2 -35 13 -43 10 -35 -13 9 -23 99 -21 120 3 35
39 14 78 -53 97 -31 10 -42 25 -28 42 12 15 42 17 68 3 13 -7 19 -6 24 5 3 8
2 16 -2 19 -19 11 -70 14 -94 5z"/>
<path d="M1234 240 c-57 -23 -74 -121 -29 -165 28 -28 89 -34 120 -12 27 20
10 42 -18 22 -31 -22 -53 -19 -76 11 -27 34 -27 78 -1 104 24 24 47 25 72 3
14 -13 21 -14 30 -5 27 27 -53 62 -98 42z"/>
<path d="M1686 234 c-9 -8 -16 -21 -16 -29 0 -7 -6 -16 -12 -19 -10 -5 -10 -7
0 -12 7 -4 12 -27 12 -65 0 -46 3 -59 15 -59 12 0 15 13 15 60 0 47 3 60 15
60 8 0 15 5 15 10 0 6 -7 10 -15 10 -8 0 -15 5 -15 10 0 6 7 13 15 16 19 8 20
34 1 34 -8 0 -22 -7 -30 -16z"/>
<path d="M30 145 c0 -80 3 -95 16 -95 13 0 15 11 12 69 -2 38 -1 67 2 65 2 -3
14 -29 25 -57 29 -72 46 -71 78 3 15 33 28 60 29 60 2 0 2 -31 0 -70 -3 -66
-2 -70 18 -70 20 0 21 4 19 95 -3 96 -3 96 -28 93 -19 -2 -29 -15 -51 -65
l-26 -62 -28 64 c-20 47 -33 65 -47 65 -17 0 -19 -8 -19 -95z"/>
<path d="M1360 145 c0 -84 2 -95 18 -95 14 0 17 7 14 39 -5 46 12 81 37 81 23
0 31 -19 31 -76 0 -32 4 -44 15 -44 25 0 21 112 -6 135 -17 16 -25 17 -51 7
-30 -11 -30 -11 -26 18 4 24 1 30 -14 30 -16 0 -18 -10 -18 -95z"/>
<path d="M1100 211 c0 -11 -6 -22 -12 -24 -10 -4 -10 -7 -1 -14 6 -5 13 -33
15 -63 3 -54 4 -55 36 -58 35 -4 44 12 12 21 -16 4 -20 14 -20 51 0 34 4 46
15 46 8 0 15 7 15 15 0 9 -6 12 -15 9 -10 -4 -15 0 -15 15 0 12 -6 21 -15 21
-8 0 -15 -9 -15 -19z"/>
<path d="M265 135 c13 -36 27 -70 30 -75 3 -5 -3 -15 -15 -22 -28 -18 -25 -30
8 -26 24 3 31 13 59 83 36 91 39 105 19 105 -9 0 -22 -23 -33 -57 l-19 -57
-20 55 c-12 33 -26 55 -37 57 -16 3 -15 -3 8 -63z"/>
<path d="M580 180 c-27 -27 -27 -90 -1 -114 22 -20 92 -19 99 3 3 10 -3 11
-27 6 -34 -7 -61 7 -61 31 0 10 14 14 51 14 51 0 51 0 45 28 -13 52 -69 69
-106 32z m74 -25 c4 -12 -3 -15 -29 -15 -33 0 -43 8 -28 23 12 13 51 7 57 -8z"/>
<path d="M733 185 c-39 -27 -38 -101 1 -127 18 -13 73 -9 85 5 16 20 3 27 -25
15 -34 -16 -56 5 -52 51 3 31 7 36 31 39 15 2 27 -1 27 -7 0 -6 7 -8 15 -4 14
5 14 8 -1 24 -21 23 -52 24 -81 4z"/>
<path d="M850 123 c0 -57 3 -73 14 -73 11 0 16 15 18 53 2 43 7 54 26 62 24
10 30 35 9 35 -7 0 -18 -5 -25 -12 -7 -7 -12 -8 -12 -2 0 6 -7 11 -15 11 -12
0 -15 -15 -15 -74z"/>
<path d="M960 178 c-24 -26 -26 -75 -4 -106 13 -19 24 -22 57 -20 22 2 42 9
45 16 3 10 -4 12 -31 7 -29 -6 -37 -3 -46 13 -16 31 -15 32 39 32 43 0 50 3
50 20 0 28 -35 60 -65 60 -13 0 -33 -10 -45 -22z m78 -25 c2 -9 -8 -13 -32
-13 -28 0 -34 3 -29 16 7 18 54 16 61 -3z"/>
<path d="M1542 184 c-27 -19 -31 -93 -6 -118 23 -24 104 -19 104 6 0 5 -13 7
-30 3 -33 -7 -60 7 -60 31 0 10 13 14 45 14 41 0 45 2 45 23 0 49 -55 72 -98
41z m66 -31 c2 -9 -7 -13 -27 -13 -30 0 -39 9 -24 24 11 10 46 3 51 -11z"/>
</g>
</svg>
